<svg version="1.1" xmlns="http://www.w3.org/2000/svg" xmlns:xlink="http://www.w3.org/1999/xlink" width="512" height="512" viewBox="0,0,256,256"><g fill="#ffffff" fill-rule="nonzero" stroke="none" stroke-width="1" stroke-linecap="butt" stroke-linejoin="miter" stroke-miterlimit="10" stroke-dasharray="" stroke-dashoffset="0" font-family="none" font-weight="none" font-size="none" text-anchor="none" style="mix-blend-mode: normal"><g transform="scale(0.5,0.5)"><path d="M420,20c-5.52262,0.00055 -9.99945,4.47738 -10,10v450h-40v-360c-0.00055,-5.52262 -4.47738,-9.99945 -10,-10h-70c-5.52262,0.00055 -9.99945,4.47738 -10,10v360h-40v-290c-0.00055,-5.52262 -4.47738,-9.99945 -10,-10h-70c-5.52262,0.00055 -9.99945,4.47738 -10,10v290h-40v-220c-0.00055,-5.52262 -4.47738,-9.99945 -10,-10h-70c-5.52262,0.00055 -9.99945,4.47738 -10,10v228.36523c-0.48405,2.92165 0.35165,5.90758 2.28199,8.15349c1.93034,2.24591 4.7568,3.52081 7.71801,3.48128h70h60h70h60h70h60h70c2.95518,0.03803 5.77586,-1.23297 7.70506,-3.47189c1.92919,-2.23892 2.76933,-5.21647 2.29494,-8.13358v-458.39453c-0.00055,-5.52262 -4.47738,-9.99945 -10,-10zM430,40h50v440h-50zM300,130h50v350h-50zM170,200h50v280h-50zM40,270h50v210h-50z"></path></g></g></svg>