<svg version="1.1" xmlns="http://www.w3.org/2000/svg" xmlns:xlink="http://www.w3.org/1999/xlink" width="24px" height="24px" viewBox="0,0,256,256"><g fill="#ffffff" fill-rule="nonzero" stroke="none" stroke-width="1" stroke-linecap="butt" stroke-linejoin="miter" stroke-miterlimit="10" stroke-dasharray="" stroke-dashoffset="0" font-family="none" font-weight="none" font-size="none" text-anchor="none" style="mix-blend-mode: normal"><g transform="scale(10.66667,10.66667)"><path d="M23,3.02344l-8,0.99219v2.98438h2v-1.2168l4,-0.49805v13.42969l-4,-0.49805v-1.2168h-2v2.98438l8,0.99219zM10.25,4c-0.9665,0 -1.75,0.7835 -1.75,1.75c0,0.9665 0.7835,1.75 1.75,1.75c0.9665,0 1.75,-0.7835 1.75,-1.75c0,-0.9665 -0.7835,-1.75 -1.75,-1.75zM4.96484,7c-0.39833,0.0015 -0.79659,0.08371 -1.16992,0.24414l-0.01367,0.00391l-1.82617,0.84375l0.83984,1.81641l1.78906,-0.82812h0.00391c0.1236,-0.05255 0.25437,-0.07959 0.38477,-0.08008c0.13317,-0.0005 0.26544,0.02555 0.39063,0.07813l0.46875,0.21094l-1.63086,3.00586c-0.134,0.275 -0.20317,0.58076 -0.20117,0.88477c0.003,0.53 0.21094,1.02734 0.58594,1.40234l2.41211,1.9668l-1.17187,3.45117h2.11133l0.95313,-2.80469c0.083,-0.238 0.11937,-0.48542 0.10938,-0.73242c-0.021,-0.533 -0.24741,-1.0265 -0.69141,-1.4375l-1.19922,-1.18164l1.48828,-2.74414l0.34766,0.53516c0.55282,0.85096 1.50184,1.36523 2.51563,1.36523h1.53906v-2h-1.53906c-0.34022,0 -0.65467,-0.17004 -0.83984,-0.45508l-0.71289,-1.0957v-0.00195c-0.31398,-0.48144 -0.75883,-0.86527 -1.28711,-1.10156l-2.47266,-1.10742l-0.01172,-0.00391c-0.37481,-0.15742 -0.77305,-0.23587 -1.17187,-0.23437zM17,9v2h-2v2h2v2l3,-3zM3.77734,15.16406l-0.42578,0.50586c-0.189,0.21 -0.45819,0.33008 -0.74219,0.33008h-1.60937v2h1.60938c0.85,0 1.662,-0.36158 2.25,-1.01758l0.44531,-0.52734l-1.42578,-1.16602c-0.038,-0.038 -0.06556,-0.085 -0.10156,-0.125z"></path></g></g></svg>